<?xml version="1.0" encoding="UTF-8" standalone="no"?>
<svg
   width="322"
   height="312"
   viewBox="0 0 322 312"
   fill="none"
   version="1.1"
   id="svg8"
   sodipodi:docname="ab04e800-bfd9-45f7-9c6c-feb374db8763.svg"
   xmlns:inkscape="http://www.inkscape.org/namespaces/inkscape"
   xmlns:sodipodi="http://sodipodi.sourceforge.net/DTD/sodipodi-0.dtd"
   xmlns="http://www.w3.org/2000/svg"
   xmlns:svg="http://www.w3.org/2000/svg">
  <defs
     id="defs8" />
  <sodipodi:namedview
     id="namedview8"
     pagecolor="#ffffff"
     bordercolor="#000000"
     borderopacity="0.25"
     inkscape:showpageshadow="2"
     inkscape:pageopacity="0.0"
     inkscape:pagecheckerboard="0"
     inkscape:deskcolor="#d1d1d1" />
  <path
     d="M175.104 212.132L245.815 141.421L267.028 162.635L196.317 233.345L175.104 212.132Z"
     fill="white"
     id="path1" />
  <path
     d="M139.749 176.777L210.459 106.066L231.673 127.279L160.962 197.99L139.749 176.777Z"
     fill="white"
     id="path2" />
  <path
     d="M69.0381 106.066L139.749 35.3553L160.962 56.5685L90.2513 127.279L69.0381 106.066Z"
     fill="white"
     id="path3" />
  <path
     d="M33.6827 70.7107L104.393 0L125.607 21.2132L54.8959 91.9239L33.6827 70.7107Z"
     fill="white"
     id="path4" />
  <path
     d="M168.033 289.914L281.17 176.777L302.383 197.99L189.246 311.127L168.033 289.914Z"
     fill="white"
     id="path5" />
  <path
     d="M33.6827 70.7107C-11.2276 115.621 -11.2276 188.435 33.6827 233.345C78.593 278.256 151.407 278.256 196.317 233.345L175.104 212.132C141.91 245.327 88.0905 245.327 54.8959 212.132C21.7014 178.937 21.7014 125.118 54.8959 91.9239L33.6827 70.7107Z"
     fill="white"
     id="path6" />
  <path
     d="M69.0381 106.066C43.654 131.45 43.654 172.606 69.0381 197.99C94.4221 223.374 135.578 223.374 160.962 197.99L139.749 176.777C126.08 190.445 103.92 190.445 90.2513 176.777C76.5829 163.108 76.5829 140.948 90.2513 127.279L69.0381 106.066Z"
     fill="white"
     id="path7" />
  <path
     d="M302.383 197.99C327.767 172.606 327.767 131.45 302.383 106.066C276.999 80.6819 235.843 80.6819 210.459 106.066L231.673 127.279C245.341 113.611 267.502 113.611 281.17 127.279C294.838 140.948 294.838 163.108 281.17 176.777L302.383 197.99Z"
     fill="white"
     id="path8" />
</svg>
